<?xml version="1.0" encoding="UTF-8"?>
<svg version="1.1" xmlns="http://www.w3.org/2000/svg" width="512" height="512">
<path d="M0 0 C2.49204818 -0.00571246 4.98409375 -0.01268009 7.47613525 -0.02079773 C13.50726329 -0.03680125 19.53824118 -0.03884908 25.56937572 -0.03358483 C30.47920641 -0.02952022 35.3890065 -0.03101365 40.29883575 -0.03633308 C41.00138594 -0.03708151 41.70393612 -0.03782993 42.4277757 -0.03860103 C43.85566853 -0.04013274 45.28356136 -0.04167108 46.71145418 -0.043216 C60.06133993 -0.05690105 73.41116685 -0.05153198 86.76105121 -0.04003078 C98.92951712 -0.03010656 111.09783079 -0.04303215 123.26627323 -0.06696498 C135.81002974 -0.09144694 148.35371562 -0.10094138 160.89749551 -0.09431225 C167.92012984 -0.09083962 174.94264732 -0.09292108 181.96526337 -0.11056328 C188.57450204 -0.1269633 195.18349984 -0.12196323 201.7927475 -0.10325813 C204.20319568 -0.09960038 206.61366574 -0.10259734 209.02409363 -0.11314392 C226.73457274 -0.18465241 244.09182763 1.04419363 260.75097656 7.59155273 C261.52135254 7.88634521 262.29172852 8.1811377 263.08544922 8.48486328 C294.28826156 20.86148733 319.56370928 45.68562544 333.12207031 76.30932617 C334.65483428 79.96241363 336.02571406 83.65805592 337.31347656 87.40405273 C337.54397705 88.06646973 337.77447754 88.72888672 338.01196289 89.41137695 C343.1536951 105.30675033 343.43947143 120.85976867 343.4050293 137.40307617 C343.41074176 139.89512435 343.41770939 142.38716992 343.42582703 144.87921143 C343.44183054 150.91033946 343.44387837 156.94131735 343.43861412 162.9724519 C343.43454951 167.88228258 343.43604294 172.79208267 343.44136238 177.70191193 C343.4421108 178.40446211 343.44285923 179.10701229 343.44363033 179.83085187 C343.44516203 181.2587447 343.44670038 182.68663753 343.44824529 184.11453035 C343.46193034 197.4644161 343.45656128 210.81424302 343.44506008 224.16412738 C343.43513586 236.33259329 343.44806145 248.50090696 343.47199427 260.6693494 C343.49647623 273.21310591 343.50597068 285.75679179 343.49934155 298.30057168 C343.49586892 305.32320601 343.49795038 312.34572349 343.51559258 319.36833954 C343.5319926 325.97757821 343.52699252 332.58657601 343.50828743 339.19582367 C343.50462968 341.60627186 343.50762664 344.01674191 343.51817322 346.4271698 C343.5896817 364.13764891 342.36083567 381.4949038 335.81347656 398.15405273 C335.51868408 398.92442871 335.2238916 399.69480469 334.92016602 400.48852539 C325.04809204 425.3770952 306.88052772 447.44079725 284.00097656 461.40405273 C282.92847656 462.08725586 281.85597656 462.77045898 280.75097656 463.47436523 C274.36327616 467.36317358 267.86146444 470.48206371 260.87597656 473.15405273 C260.19196777 473.42362793 259.50795898 473.69320313 258.80322266 473.97094727 C241.45808921 480.2617074 223.79752489 480.98923481 205.54785156 480.92163086 C203.05521234 480.92706448 200.56257633 480.93419404 198.06994629 480.94287109 C192.05268646 480.9590904 186.03570483 480.9568925 180.01845646 480.94522053 C175.1201572 480.93611932 170.22191372 480.93499077 165.3236084 480.9393158 C164.62160018 480.93992873 163.91959196 480.94054166 163.19631076 480.94117317 C161.76938405 480.9424523 160.34245736 480.94374916 158.91553068 480.94506353 C145.59231035 480.95642008 132.26920081 480.94343352 118.94599867 480.92186207 C107.55932133 480.90399557 96.17280721 480.90710107 84.78613281 480.92553711 C71.50465341 480.9470315 58.22327065 480.95532191 44.94177628 480.94308805 C43.52063244 480.9418141 42.09948859 480.94055661 40.67834473 480.9393158 C39.62999738 480.93839014 39.62999738 480.93839014 38.5604713 480.93744579 C33.67843313 480.93401846 28.79645722 480.93976408 23.91442871 480.94923401 C17.32153985 480.96174372 10.72890808 480.95260735 4.1360321 480.92965698 C1.73203535 480.92441659 -0.67198754 480.92580233 -3.07597351 480.93470764 C-23.5174871 481.0033871 -42.18506279 478.67194361 -60.99902344 470.40405273 C-61.65322266 470.12078125 -62.30742188 469.83750977 -62.98144531 469.5456543 C-93.07651828 456.25978062 -116.78320933 430.68248988 -128.87011719 400.20776367 C-129.72066328 397.95107283 -130.52751414 395.68467227 -131.31152344 393.40405273 C-131.65727417 392.41042725 -131.65727417 392.41042725 -132.01000977 391.39672852 C-137.15174197 375.50135514 -137.4375183 359.9483368 -137.40307617 343.4050293 C-137.40878864 340.91298112 -137.41575626 338.42093555 -137.4238739 335.92889404 C-137.43987742 329.89776601 -137.44192525 323.86678812 -137.436661 317.83565357 C-137.43259639 312.92582289 -137.43408982 308.0160228 -137.43940926 303.10619354 C-137.44015768 302.40364336 -137.4409061 301.70109318 -137.4416772 300.9772536 C-137.44320891 299.54936076 -137.44474726 298.12146794 -137.44629217 296.69357511 C-137.45997722 283.34368937 -137.45460815 269.99386245 -137.44310696 256.64397809 C-137.43318273 244.47551218 -137.44610832 232.30719851 -137.47004115 220.13875607 C-137.49452311 207.59499956 -137.50401755 195.05131368 -137.49738842 182.50753379 C-137.49391579 175.48489946 -137.49599725 168.46238198 -137.51363945 161.43976593 C-137.53003947 154.83052726 -137.5250394 148.22152945 -137.5063343 141.6122818 C-137.50267656 139.20183361 -137.50567352 136.79136356 -137.51622009 134.38093567 C-137.58772858 116.67045656 -136.35888254 99.31320167 -129.81152344 82.65405273 C-129.51673096 81.88367676 -129.22193848 81.11330078 -128.91821289 80.31958008 C-116.54158885 49.11676774 -91.71745073 23.84132002 -61.09375 10.28295898 C-57.44066254 8.75019502 -53.74502026 7.37931524 -49.99902344 6.09155273 C-49.00539795 5.745802 -49.00539795 5.745802 -47.99169922 5.39306641 C-32.09632584 0.2513342 -16.54330751 -0.03444213 0 0 Z M-38.37402344 160.02905273 C-40.52310335 164.49252639 -41.0086132 168.53426683 -39.99902344 173.40405273 C-37.03751009 178.85592958 -32.7740951 182.70758857 -28.24902344 186.84155273 C-27.23195313 187.78611328 -27.23195313 187.78611328 -26.19433594 188.74975586 C-22.14581024 192.49425729 -18.02496055 196.14743426 -13.86523438 199.76757812 C-11.20175676 202.10317342 -8.60100482 204.50004819 -5.99902344 206.90405273 C-2.69949567 209.94374269 0.61049263 212.96563333 4.00097656 215.90405273 C7.39149673 218.84250355 10.70026513 221.86561902 14.00097656 224.90405273 C19.2292764 229.70920488 19.2292764 229.70920488 24.50097656 234.46655273 C25.08878906 234.9937793 25.67660156 235.52100586 26.28222656 236.06420898 C28.09677984 237.47873574 29.9137752 238.44741878 32.00097656 239.40405273 C32.00097656 240.06405273 32.00097656 240.72405273 32.00097656 241.40405273 C31.41541992 241.66742432 30.82986328 241.9307959 30.2265625 242.20214844 C27.90241371 243.45728057 26.29489919 244.81091228 24.39160156 246.63452148 C23.38226563 247.59261719 23.38226563 247.59261719 22.35253906 248.57006836 C21.65902344 249.2371582 20.96550781 249.90424805 20.25097656 250.59155273 C15.54023664 255.09183184 10.79037549 259.50867961 5.8671875 263.77636719 C3.19868708 266.10379946 0.60178407 268.50113275 -1.99902344 270.90405273 C-5.90794564 274.50514731 -9.85770988 278.04824765 -13.87402344 281.52905273 C-17.14819802 284.41803031 -20.35285931 287.38279311 -23.55957031 290.34619141 C-26.48372219 293.04171931 -29.45628921 295.65634166 -32.49902344 298.21655273 C-36.31486651 301.58721412 -39.54762171 304.5310688 -40.37402344 309.79077148 C-40.64608895 315.47864108 -39.93716525 319.05136967 -35.99902344 323.40405273 C-31.65593091 327.3335174 -28.18920203 327.86315301 -22.56152344 327.93530273 C-16.66737661 326.71334547 -12.37710735 322.1102147 -8.12402344 318.09155273 C-7.06477677 317.10517807 -6.00488127 316.1194997 -4.94433594 315.13452148 C-4.43676758 314.66191895 -3.92919922 314.18931641 -3.40625 313.70239258 C-1.6339959 312.06726987 0.17643431 310.48048777 2.00097656 308.90405273 C5.39148373 305.96561319 8.70068734 302.94293291 12.00097656 299.90405273 C15.91079252 296.30392517 19.85964124 292.75987668 23.87597656 289.27905273 C26.61921075 286.85855198 29.30982225 284.38204631 32.00097656 281.90405273 C35.91079252 278.30392517 39.85964124 274.75987668 43.87597656 271.27905273 C47.15015115 268.39007516 50.35481243 265.42531236 53.56152344 262.46191406 C56.48567531 259.76638616 59.45824234 257.15176381 62.50097656 254.59155273 C66.31681964 251.22089135 69.54957483 248.27703667 70.37597656 243.01733398 C70.65928406 237.09443656 69.71741202 234.17979065 66.00097656 229.40405273 C63.51473137 226.81564287 60.90014489 224.38675019 58.25097656 221.96655273 C57.23390625 221.02199219 57.23390625 221.02199219 56.19628906 220.05834961 C52.14776337 216.31384818 48.02691368 212.66067121 43.8671875 209.04052734 C41.20370989 206.70493205 38.60295795 204.30805728 36.00097656 201.90405273 C32.70144879 198.86436278 29.39146049 195.84247214 26.00097656 192.90405273 C22.07008407 189.49727924 18.24901084 185.97402489 14.42285156 182.45092773 C11.03675912 179.33845892 7.60483878 176.29072528 4.12597656 173.28295898 C1.91044469 171.32400525 -0.25717883 169.31719455 -2.42333984 167.30395508 C-13.31055538 156.53963448 -13.31055538 156.53963448 -27.45996094 153.12670898 C-32.50475359 153.67775557 -35.09888707 156.40916517 -38.37402344 160.02905273 Z M91.00097656 302.46655273 C87.57381837 307.50019134 87.34328996 311.38297825 88.00097656 317.40405273 C90.34890314 322.28051563 93.2885851 324.80742887 98.00097656 327.40405273 C101.50899829 328.29330234 104.79008316 328.53291503 108.40106201 328.54449463 C109.47194061 328.55020477 110.54281921 328.55591492 111.64614868 328.5617981 C113.3933168 328.56347488 113.3933168 328.56347488 115.17578125 328.56518555 C116.41051178 328.57015045 117.64524231 328.57511536 118.91738892 328.58023071 C122.29777042 328.59231689 125.67809025 328.59979167 129.05848598 328.60424137 C131.17373099 328.60717896 133.28897065 328.61128506 135.40421295 328.61574554 C142.03196141 328.62941007 148.65969757 328.63908165 155.28745914 328.64294744 C162.92028539 328.64742478 170.55293226 328.66496193 178.18570399 328.69394803 C184.09757751 328.71561417 190.00940075 328.72565435 195.92131352 328.72698855 C199.44666406 328.72803312 202.97184574 328.73386617 206.49715424 328.75180817 C210.43435869 328.7714577 214.37134159 328.76698025 218.30859375 328.76049805 C220.04361649 328.77432022 220.04361649 328.77432022 221.81369019 328.78842163 C232.44044165 328.74398178 232.44044165 328.74398178 241.61936569 323.95207596 C245.68474808 319.21312022 246.35694566 316.00600297 246.27832031 309.94311523 C245.86721212 306.17944871 244.51811296 304.18615086 242.00097656 301.40405273 C236.63298501 297.17818705 232.29492365 296.28507711 225.60089111 296.26361084 C224.53001251 296.2579007 223.45913391 296.25219055 222.35580444 296.24630737 C220.60863632 296.24463058 220.60863632 296.24463058 218.82617188 296.24291992 C217.59144135 296.23795502 216.35671082 296.23299011 215.08456421 296.22787476 C211.7041827 296.21578858 208.32386288 296.2083138 204.94346714 296.2038641 C202.82822214 296.20092651 200.71298247 296.19682041 198.59774017 296.19235992 C191.96999172 296.1786954 185.34225555 296.16902382 178.71449399 296.16515803 C171.08166774 296.16068069 163.44902086 296.14314354 155.81624913 296.11415744 C149.90437561 296.0924913 143.99255238 296.08245112 138.0806396 296.08111691 C134.55528906 296.08007235 131.03010738 296.0742393 127.50479889 296.0562973 C123.56759444 296.03664777 119.63061154 296.04112522 115.69335938 296.04760742 C113.95833664 296.03378525 113.95833664 296.03378525 112.18826294 296.01968384 C104.47805267 296.0593632 96.35112297 296.22996672 91.00097656 302.46655273 Z " fill="#920DF6" transform="translate(152.9990234375,15.595947265625)"/>
</svg>
